<?xml version="1.0" encoding="utf-8"?>
<?xml-stylesheet type="text/css" href="../styles/styles.css"?>
<!DOCTYPE svg>
<svg class="svg-icon-white" fill="#000" enable-background="new 0 0 841.89 595.28" height="100" viewBox="0 0 99.999998 99.999995" width="100" xmlns="http://www.w3.org/2000/svg">
  <g transform="matrix(0.42712337,0,0,0.42712337,-135.31057,-83.445132)">
    <path d="m 473.146,262.704 c -15.106,-1.119 -27.922,8.436 -35.071,8.436 -7.25,0 -18.438,-8.192 -30.291,-7.968 -15.576,0.226 -29.923,9.061 -37.955,23.002 -16.172,28.069 -4.125,69.661 11.626,92.444 7.703,11.134 16.893,23.677 28.967,23.216 11.621,-0.461 16.015,-7.514 30.059,-7.514 14.035,0 17.994,7.514 30.282,7.29 12.509,-0.237 20.43,-11.362 28.08,-22.549 8.852,-12.922 12.486,-25.438 12.705,-26.097 -0.276,-0.104 -24.375,-9.353 -24.621,-37.116 -0.215,-23.216 18.951,-34.377 19.824,-34.915 -10.881,-16.021 -27.689,-17.787 -33.605,-18.229"/>
    <path d="m 463.823,247.666 c 6.412,-7.75 10.73,-18.551 9.541,-29.287 -9.229,0.362 -20.398,6.146 -27.017,13.895 -5.935,6.862 -11.144,17.856 -9.726,28.376 10.292,0.797 20.795,-5.227 27.202,-12.984"/>
    <g>
      <path d="m 467.997,266.277 c -15.216,-1.128 -28.132,8.503 -35.334,8.503 -7.312,0 -18.578,-8.26 -30.528,-8.036 -15.686,0.23 -30.146,9.133 -38.235,23.177 -16.296,28.284 -4.16,70.196 11.714,93.15 7.759,11.218 17.023,23.853 29.186,23.393 11.704,-0.457 16.138,-7.566 30.287,-7.566 14.145,0 18.134,7.566 30.515,7.338 12.601,-0.229 20.584,-11.446 28.29,-22.726 8.918,-13.017 12.588,-25.621 12.803,-26.284 -0.281,-0.101 -24.56,-9.423 -24.806,-37.401 -0.22,-23.392 19.091,-34.636 19.974,-35.181 -10.969,-16.142 -27.901,-17.926 -33.866,-18.367"/>
    </g>
    <g>
      <path d="m 458.605,251.126 c 6.464,-7.812 10.813,-18.692 9.62,-29.515 -9.309,0.369 -20.558,6.199 -27.232,14.005 -5.974,6.917 -11.223,17.994 -9.796,28.591 10.366,0.806 20.952,-5.266 27.408,-13.081"/>
    </g>
  </g>
</svg>
