<svg fill="#666" height="32px" viewBox="0 0 32 32" width="32px" xmlns="http://www.w3.org/2000/svg">
  <g transform="translate(96 240)">
    <path d="M-76.728-240L-64-227.273l-4.244,1.414l-9.896-9.896L-76.728-240L-76.728-240z M-70.543-223.557l-9.898-9.898l-9.902,4.242   L-96-212.241l4.244,4.241l16.971-5.657L-70.543-223.557L-70.543-223.557z M-91.218-210.289l-0.541-0.539l8.748-8.748   c1.115,0.531,2.484,0.344,3.406-0.578c1.172-1.17,1.172-3.068,0-4.242c-1.172-1.171-3.072-1.171-4.242,0   c-0.922,0.922-1.106,2.291-0.577,3.404l-8.748,8.75l-0.539-0.541l4.979-14.945l7.832-3.354l7.981,7.982l-3.354,7.828   L-91.218-210.289z"/>
  </g>
</svg>
