<svg width="20" height="20" viewBox="0 0 20 20" xmlns="http://www.w3.org/2000/svg">
  <path d="M18.507 15.587c-.577-1.15-2.472-1.844-5.094-2.805-.37-.136-.756-.277-1.155-.426V10.27c.262-.286.925-1.14.99-2.464.183-.14.33-.402.413-.76.134-.565.064-1.24-.354-1.614.03-.073.064-.16.096-.243.308-.778.883-2.227.66-3.35C13.805.567 11.956 0 10.235 0 8.978 0 7.448.315 7.01 1.183c-.483.045-.853.236-1.1.57-.683.92-.178 2.586.093 3.48.02.064.04.13.056.188-.428.374-.502 1.055-.366 1.627.083.357.23.62.412.76.064 1.3.712 2.065.99 2.336v2.213c-.4.15-.785.29-1.157.427-2.623.96-4.518 1.653-5.093 2.804C.01 17.263 0 18.96 0 19.032c0 .178.144.323.322.323h18.71c.178 0 .323-.145.323-.323 0-.07-.01-1.77-.848-3.445" fill-opacity="50%" fill="#fff" fill-rule="evenodd"/>
</svg>
