<svg viewBox="0 0 32 32" xmlns="http://www.w3.org/2000/svg">
  <path fill="rgba(255, 255, 255, 0.5)" d="M32 31.292V19.46c0-6.34-3.384-9.29-7.896-9.29-3.64 0-5.273 2.003-6.182 3.41v-2.925h-6.86c.09 1.937 0 20.637 0 20.637h6.86V19.767c0-.615.044-1.232.226-1.672.495-1.233 1.624-2.51 3.518-2.51 2.483 0 3.475 1.893 3.475 4.667v11.04H32zM3.835 7.838c2.39 0 3.882-1.586 3.882-3.567C7.673 2.248 6.227.708 3.88.708S0 2.247 0 4.27C0 6.253 1.49 7.84 3.792 7.84h.043zm3.43 23.454V10.655H.405v20.637h6.86z"/>
</svg>
