<?xml-stylesheet type="text/css" href="../styles.min.css"?>
<svg width="14" height="20" viewBox="0 0 14 20" xmlns="http://www.w3.org/2000/svg">
  <path d="M11.67 8.94V4.666C11.67 2.224 9.284 0 6.667 0c-2.618 0-5 2.224-5 4.667V8.94C.632 10.114 0 11.65 0 13.334c0 3.677 2.99 6.668 6.668 6.668 3.676 0 6.667-2.99 6.667-6.668 0-1.684-.633-3.22-1.666-4.396zM7 13.91v2.426c0 .184-.148.333-.332.333-.185 0-.334-.15-.334-.334V13.91c-.198-.116-.333-.33-.333-.575 0-.367.3-.666.668-.666.367 0 .667.298.667.665 0 .246-.136.46-.334.574zm4.002-5.63c-1.167-1.003-2.68-1.612-4.334-1.612-1.655 0-3.167.61-4.334 1.61V4.67c0-2.057 2.106-4 4.334-4 2.227 0 4.334 1.943 4.334 4v3.61z" class="svg-icon-default" fill-opacity="50%" fill="#424753" fill-rule="evenodd"/>
</svg>
