<?xml-stylesheet type="text/css" href="../styles.min.css"?>
<svg class="svg-icon-white" height="100" viewBox="0 0 99.999998 99.999995" width="100" xmlns="http://www.w3.org/2000/svg">
  <path d="M66.78 28.762c-6.45-.478-11.925 3.603-14.978 3.603-3.097 0-7.876-3.5-12.938-3.403-6.653.096-12.78 3.87-16.212 9.824-6.907 11.99-1.762 29.754 4.966 39.485 3.29 4.757 7.215 10.114 12.372 9.918 4.964-.197 6.84-3.21 12.84-3.21 5.994 0 7.685 3.21 12.933 3.114 5.343-.1 8.726-4.853 11.994-9.63 3.78-5.52 5.333-10.866 5.427-11.148-.118-.044-10.412-3.995-10.517-15.853-.092-9.915 8.095-14.682 8.468-14.912-4.648-6.843-11.827-7.597-14.354-7.786M62.8 22.34c2.738-3.31 4.582-7.925 4.074-12.51-3.942.154-8.712 2.625-11.54 5.935-2.534 2.93-4.76 7.626-4.154 12.12 4.396.34 8.882-2.233 11.62-5.546"/>
  <path d="M64.582 30.288c-6.5-.482-12.016 3.632-15.092 3.632-3.123 0-7.935-3.528-13.04-3.433-6.7.1-12.875 3.9-16.33 9.9-6.96 12.08-1.777 29.982 5.003 39.786 3.314 4.792 7.27 10.19 12.466 9.992 4.998-.195 6.892-3.23 12.935-3.23 6.042 0 7.746 3.23 13.034 3.133 5.38-.098 8.79-4.89 12.082-9.707 3.81-5.56 5.377-10.942 5.47-11.226-.12-.043-10.49-4.024-10.597-15.974-.093-9.992 8.155-14.794 8.532-15.027-4.685-6.895-11.917-7.657-14.465-7.845M60.57 23.817c2.76-3.337 4.62-7.984 4.11-12.607-3.977.158-8.782 2.648-11.632 5.982-2.552 2.954-4.794 7.686-4.184 12.212 4.427.344 8.95-2.25 11.706-5.587"/>
</svg>
