<?xml-stylesheet type="text/css" href="../styles.min.css"?>
<svg width="20" height="19" viewBox="0 0 20 19" xmlns="http://www.w3.org/2000/svg">
  <g class="svg-icon-default" fill-opacity="50%" fill="#424753" fill-rule="evenodd">
    <path d="M.767 8.092c-.12.05-.2.17-.2.3 0 .13.08.25.202.298l6.747 2.724L19.373.426.767 8.092M7.752 12.077v5.665c0 .145.096.272.236.31.028.01.057.013.086.013.11 0 .217-.058.276-.157l2.776-4.62 5.068 2.708c.047.026.1.038.152.038.046 0 .09-.01.135-.03.092-.04.16-.124.18-.223L20 .726 7.752 12.077"/>
  </g>
</svg>
