<svg fill="rgba(255, 255, 255, 0.5)" viewBox="0 0 32 32" xmlns="http://www.w3.org/2000/svg">
  <path d="M20.046 3.07c-2.89 1.053-4.716 3.765-4.51 6.733l.07 1.145-1.155-.14c-4.206-.537-7.883-2.36-11.005-5.423L1.92 3.865 1.525 4.99c-.832 2.5-.3 5.143 1.433 6.92.924.982.715 1.122-.88.537-.554-.186-1.04-.327-1.086-.257-.16.164.393 2.29.832 3.133.6 1.17 1.826 2.315 3.168 2.994l1.133.537-1.34.024c-1.295 0-1.342.023-1.203.515.462 1.518 2.29 3.132 4.323 3.833l1.433.49-1.248.748c-1.85 1.078-4.023 1.685-6.197 1.73-1.04.023-1.895.117-1.895.188 0 .233 2.82 1.54 4.462 2.057 4.925 1.52 10.775.864 15.168-1.73 3.122-1.847 6.242-5.517 7.7-9.07.787-1.893 1.572-5.354 1.572-7.012 0-1.076.07-1.216 1.364-2.5.764-.75 1.48-1.567 1.62-1.8.23-.446.206-.446-.972-.048-1.965.702-2.243.608-1.27-.444.715-.747 1.57-2.103 1.57-2.5 0-.07-.345.046-.74.257-.415.232-1.34.583-2.034.793l-1.248.398-1.133-.772c-.626-.42-1.503-.888-1.966-1.028-1.18-.327-2.984-.28-4.048.093z"/>
</svg>
