<svg height="24" viewBox="0 0 24 24" width="24" xmlns="http://www.w3.org/2000/svg">
  <g fill="none" fill-rule="evenodd">
    <path fill="#fff" d="M12 12.98V20l-7.875-4.8H2.042C1 15.2 1 14.133 1 14.133V9.867S1 8.8 2.042 8.8h2.083l.725-.442 7.15 4.62zm0-3.573V4L7.695 6.624 12 9.407zm9.408 6.08c.383-1.09.592-2.263.592-3.485 0-3.06-1.308-5.813-3.396-7.732l-.765.656C19.78 6.666 21 9.19 21 12.002c0 1.02-.16 2.004-.46 2.925l.868.56zm-1.4 2.668c-.463.64-.997 1.226-1.59 1.746l-.802-.628c.58-.49 1.102-1.047 1.552-1.66l.84.543zm-1.122-4.298c.075-.44.114-.893.114-1.355 0-2.458-1.11-4.658-2.854-6.125l-.77.66C16.975 8.32 18 10.293 18 12.503c0 .256-.014.508-.04.757l.926.597zm-1.09 2.868c-.375.602-.828 1.15-1.344 1.632l-.798-.626c.505-.45.944-.97 1.302-1.548l.84.543zm-1.823-4.75C15.816 10.478 15 9.18 13.82 8.372l-.795.68c.818.48 1.45 1.244 1.76 2.156l1.188.767zm-.698 3.12c-.322.53-.74.996-1.23 1.372l-.817-.643c.49-.33.903-.764 1.207-1.27l.84.542zM2.962 5.803l19.552 12.874.546-.838L3.508 4.964l-.546.838z"/>
  </g>
</svg>
