<svg height="24" viewBox="0 0 24 24" width="24" xmlns="http://www.w3.org/2000/svg">
  <g fill="none" fill-rule="evenodd">
    <path fill="#fff" d="M4.125 8.8H2.042C1 8.8 1 9.867 1 9.867v4.266S1 15.2 2.042 15.2h2.083L12 20V4L4.125 8.8zm14.48-4.53C20.69 6.19 22 8.943 22 12.002c0 3.15-1.387 5.975-3.583 7.9l-.8-.63C19.684 17.53 21 14.92 21 12.002c0-2.81-1.22-5.337-3.16-7.076l.764-.656zm-2.46 2.107C17.892 7.844 19 10.044 19 12.502c0 2.312-.98 4.394-2.548 5.855l-.798-.626C17.094 16.45 18 14.58 18 12.503c0-2.21-1.025-4.182-2.625-5.464l.77-.66zM13.82 8.372c1.316.9 2.18 2.414 2.18 4.13 0 1.615-.766 3.05-1.954 3.965l-.818-.643c1.07-.718 1.772-1.938 1.772-3.322 0-1.47-.793-2.755-1.975-3.45l.794-.68z"/>
  </g>
</svg>
